<?xml version="1.0" standalone="no"?>
<!DOCTYPE svg PUBLIC "-//W3C//DTD SVG 20010904//EN"
 "http://www.w3.org/TR/2001/REC-SVG-20010904/DTD/svg10.dtd">
<svg version="1.0" xmlns="http://www.w3.org/2000/svg"
 width="989.000000pt" height="944.000000pt" viewBox="0 0 989.000000 944.000000"
 preserveAspectRatio="xMidYMid meet">

<g transform="translate(0.000000,944.000000) scale(0.100000,-0.100000)"
fill="#000000" stroke="none">
<path d="M0 4720 l0 -4720 4945 0 4945 0 0 4720 0 4720 -4945 0 -4945 0 0
-4720z m5545 4155 c330 -43 393 -62 467 -138 67 -69 84 -183 41 -274 -15 -33
-88 -106 -114 -115 -10 -4 -6 -12 16 -29 85 -67 109 -116 109 -219 0 -146 -85
-236 -246 -261 -65 -10 -99 -8 -308 20 -129 17 -260 34 -291 37 -31 4 -62 10
-68 14 -9 5 -8 35 3 121 30 226 106 795 111 837 l6 44 37 -6 c20 -3 127 -17
237 -31z m-1245 -179 c7 -85 16 -159 19 -165 5 -7 46 -6 136 5 288 35 414 -5
487 -154 31 -62 33 -73 33 -172 0 -89 -3 -111 -22 -146 -46 -87 -147 -159
-254 -183 -57 -13 -539 -64 -545 -58 -7 6 -108 996 -103 1002 6 6 221 33 230
29 3 -2 11 -73 19 -158z m-685 17 c12 -32 225 -623 280 -780 l54 -151 -42 -17
c-89 -36 -177 -63 -181 -56 -6 10 -209 568 -243 671 -14 41 -29 78 -32 83 -7
6 -295 -93 -309 -107 -3 -4 5 -39 18 -79 54 -167 110 -373 120 -444 22 -146
-12 -283 -84 -338 -40 -30 -108 -55 -151 -55 -33 0 -34 1 -64 93 -17 50 -31
95 -31 99 0 3 13 9 29 13 16 3 41 18 55 32 24 24 26 33 26 109 0 76 -8 108
-91 380 -49 163 -87 300 -82 305 4 4 130 51 278 104 149 53 304 109 345 125
92 34 96 34 105 13z m3118 -93 c6 -5 -104 -320 -198 -562 -8 -21 -12 -38 -9
-38 3 0 147 95 320 211 174 115 321 212 328 215 13 5 192 -60 209 -76 5 -4
-51 -166 -123 -361 -72 -195 -150 -405 -173 -466 -22 -62 -46 -113 -52 -113
-5 0 -56 18 -112 41 -101 41 -102 41 -92 67 41 106 203 541 207 555 3 11 -124
-67 -323 -199 l-327 -216 -99 37 c-55 21 -102 41 -105 46 -2 5 9 46 25 91 30
85 294 799 306 830 6 15 17 13 108 -19 56 -19 106 -39 110 -43z m1163 -546
c49 -36 88 -69 87 -74 -2 -5 -47 -72 -101 -147 -54 -76 -101 -143 -105 -150
-5 -7 57 -60 168 -142 96 -72 179 -131 183 -130 4 0 56 70 115 155 l109 154
66 -52 c37 -29 79 -62 94 -74 l27 -21 -91 -129 c-319 -451 -479 -674 -486
-674 -15 0 -182 131 -182 142 0 7 17 36 38 63 113 150 193 268 185 275 -4 4
-80 61 -168 125 -88 65 -165 122 -172 127 -8 6 -47 -41 -128 -154 -64 -90
-120 -164 -125 -166 -10 -4 -174 111 -185 128 -3 5 38 69 92 143 54 73 184
253 288 400 105 147 193 267 196 267 4 0 47 -29 95 -66z m-5540 -260 c170
-103 380 -230 467 -282 86 -52 157 -98 157 -102 0 -7 -164 -128 -186 -137 -8
-3 -54 20 -105 52 -51 33 -96 54 -105 51 -8 -3 -93 -63 -190 -132 -125 -91
-173 -131 -170 -143 38 -145 48 -203 35 -216 -33 -33 -184 -134 -190 -127 -3
4 -16 54 -27 112 -12 58 -60 287 -107 510 -48 223 -89 419 -91 435 -5 28 0 34
93 97 54 37 101 68 104 68 3 0 145 -84 315 -186z m-798 -746 c417 -323 452
-351 452 -359 0 -4 -31 -45 -69 -93 l-69 -86 -123 98 c-270 213 -342 266 -337
247 3 -11 49 -131 102 -268 l96 -247 -27 -41 -27 -41 -68 6 c-38 3 -155 20
-260 37 -105 16 -200 29 -211 27 -14 -2 44 -54 207 -183 124 -98 226 -182 226
-186 0 -5 -112 -164 -124 -177 -7 -6 -796 630 -796 642 0 6 27 45 59 87 l60
75 342 -48 c188 -26 344 -46 346 -44 4 4 -61 182 -165 452 -39 99 -72 188 -74
197 -3 14 107 167 119 167 3 0 156 -118 341 -262z m7602 -138 l80 -100 -149
-308 c-82 -169 -192 -396 -245 -504 -53 -109 -100 -198 -105 -198 -5 0 -41 43
-81 97 l-73 96 53 107 53 108 -129 162 c-71 89 -136 172 -146 183 l-16 21
-113 -34 -112 -34 -16 24 c-9 13 -39 56 -68 95 -34 47 -47 72 -39 77 6 3 173
55 371 113 274 82 621 185 652 194 1 1 38 -44 83 -99z m-3087 -22 c61 -18 125
-83 147 -148 16 -49 23 -57 60 -71 23 -8 42 -20 43 -25 1 -5 -22 -13 -50 -18
l-53 -10 0 -43 c0 -24 7 -54 16 -67 14 -22 14 -25 -4 -38 -11 -8 -23 -36 -30
-72 -7 -33 -14 -62 -17 -65 -3 -2 -24 -7 -48 -11 -41 -5 -42 -6 -41 -43 1 -26
17 -62 52 -119 52 -85 88 -184 117 -320 l17 -78 60 0 c54 0 63 3 88 30 32 34
60 37 113 15 48 -20 107 -20 107 0 0 39 91 43 125 5 13 -14 31 -20 61 -20 23
0 55 -5 71 -11 26 -10 31 -7 68 34 42 47 134 121 142 113 2 -2 -3 -32 -12 -66
-25 -96 -19 -99 60 -31 38 33 70 59 72 57 5 -5 -29 -111 -48 -148 -11 -21 -16
-38 -12 -38 5 1 37 23 72 49 186 142 442 222 657 206 l92 -7 27 43 c31 49 81
106 107 120 16 9 17 3 11 -71 -3 -44 -3 -80 1 -80 4 0 37 28 72 62 59 57 64
59 64 36 0 -42 -37 -150 -69 -200 l-30 -48 19 -33 c11 -18 26 -62 33 -97 8
-36 25 -87 37 -115 17 -37 23 -73 25 -136 3 -104 13 -153 76 -384 27 -99 49
-195 49 -214 0 -28 -10 -44 -60 -94 l-60 -60 -78 6 c-78 5 -127 21 -151 50 -6
8 -14 38 -18 65 -4 36 -13 58 -30 74 -23 22 -32 23 -176 24 -84 0 -169 4 -189
8 l-37 8 -21 -73 c-12 -41 -45 -147 -72 -237 l-51 -163 12 -120 c7 -66 9 -146
5 -177 -12 -104 -61 -208 -138 -297 -14 -16 -26 -34 -26 -40 0 -29 258 -290
378 -384 51 -40 63 -62 87 -163 l19 -77 -32 -103 c-42 -137 -49 -173 -57 -303
-8 -123 -23 -161 -90 -225 -20 -19 -54 -65 -75 -101 -40 -67 -169 -199 -195
-199 -29 0 -46 48 -56 150 -7 70 -6 107 1 121 17 30 70 59 111 59 48 0 59 15
59 80 0 49 4 60 30 85 67 64 114 341 76 448 -26 72 -71 105 -228 168 -57 23
-143 62 -192 86 -49 24 -92 41 -96 36 -30 -32 -120 -387 -140 -551 -5 -46 -19
-113 -30 -150 -28 -91 -53 -316 -48 -427 6 -115 22 -149 114 -239 63 -61 144
-173 144 -198 0 -4 -60 -8 -133 -8 -146 0 -165 6 -187 59 -9 23 -9 38 -1 62 9
26 8 37 -5 58 -28 44 -67 81 -85 81 -11 0 -23 16 -34 45 -20 50 -18 73 16 265
22 121 23 164 18 450 -1 30 2 183 6 340 5 204 4 293 -4 314 -11 27 -14 28 -59
22 -26 -3 -119 -9 -208 -12 l-161 -7 80 -76 c44 -42 115 -103 159 -137 92 -71
124 -111 143 -185 19 -69 19 -140 0 -229 -10 -47 -13 -94 -9 -138 4 -37 7
-110 8 -162 1 -99 -10 -136 -55 -185 -10 -11 -32 -57 -49 -102 -32 -84 -116
-215 -149 -232 -14 -8 -22 -7 -29 2 -17 21 -72 198 -72 233 0 47 42 92 92 100
51 9 67 37 50 91 -10 31 -8 43 13 87 35 76 44 120 46 238 2 93 -1 116 -22 170
-38 100 -71 125 -255 198 -87 34 -199 82 -249 106 -49 24 -92 44 -96 44 -14 0
-74 -214 -99 -353 l-12 -67 37 -41 c82 -91 99 -173 70 -334 -8 -44 -14 -126
-15 -182 0 -96 -2 -105 -35 -167 -19 -37 -35 -77 -35 -89 0 -14 16 -39 40 -62
44 -43 105 -137 115 -178 l7 -27 -316 0 -316 0 -25 57 c-14 31 -42 76 -61 100
-20 25 -45 67 -55 94 -17 45 -18 60 -9 137 6 48 24 126 40 173 17 47 39 132
51 189 23 116 76 290 88 290 4 0 46 -23 92 -51 46 -28 110 -64 141 -80 31 -16
69 -45 85 -66 27 -35 28 -42 28 -142 0 -96 -3 -111 -28 -158 -16 -31 -27 -68
-27 -92 0 -34 -5 -42 -35 -61 -55 -34 -62 -95 -25 -200 16 -44 29 -60 46 -60
21 0 103 110 115 154 6 21 22 57 37 80 24 37 27 54 33 176 4 74 14 170 23 214
12 59 13 89 5 124 -14 64 -23 78 -109 167 -43 44 -98 109 -124 143 l-46 64 36
41 c54 64 99 169 127 297 21 98 38 141 108 284 l84 168 60 -7 c33 -4 104 -9
157 -11 53 -1 107 -8 120 -15 53 -27 88 -61 88 -84 0 -40 44 -65 112 -65 86 0
122 19 152 79 30 57 33 116 10 149 -9 13 -29 60 -46 105 -16 45 -43 110 -59
144 -25 52 -54 189 -43 201 1 2 13 -12 26 -32 24 -37 38 -46 38 -23 -1 13 -17
90 -27 122 -6 20 -5 20 16 1 58 -52 -14 91 -80 159 l-49 50 20 53 c11 29 20
62 20 73 0 20 -1 20 -31 -5 -38 -32 -89 -60 -96 -52 -3 3 -1 25 5 48 15 59 2
68 -48 33 -22 -15 -40 -31 -40 -35 0 -22 -96 -40 -116 -20 -5 5 -50 16 -99 24
l-90 14 28 -23 29 -22 -100 5 c-114 5 -181 -2 -208 -24 -14 -11 -15 -14 -4
-13 30 3 63 -1 58 -7 -4 -3 -42 -15 -85 -25 -43 -11 -109 -34 -146 -51 l-68
-32 28 -11 c28 -12 27 -12 -62 -57 -49 -25 -101 -55 -115 -67 l-25 -21 33 6
c40 8 41 -1 4 -20 -16 -8 -48 -31 -72 -51 -40 -33 -45 -35 -51 -18 -11 28 -50
60 -99 79 -91 36 -234 133 -272 184 -10 15 -26 72 -38 139 -25 137 -48 204
-90 265 -35 52 -36 83 -4 78 44 -6 70 14 84 65 7 26 18 54 23 61 7 9 7 24 -2
48 -7 19 -10 47 -6 63 5 25 12 30 49 35 24 4 52 13 62 21 18 13 16 15 -28 34
-40 17 -51 28 -77 79 -62 122 -160 165 -290 126 -67 -20 -134 -80 -158 -142
-31 -81 -17 -199 29 -241 19 -19 19 -19 -11 -41 -53 -37 -64 -72 -58 -176 4
-68 2 -99 -9 -119 -8 -15 -14 -29 -14 -31 0 -10 28 -2 61 15 l36 19 8 -126
c14 -206 10 -297 -16 -420 l-24 -113 -34 26 c-39 28 -95 34 -104 10 -4 -8 3
-40 13 -71 11 -32 19 -58 18 -59 -2 -1 -16 -7 -33 -12 -19 -6 -30 -16 -30 -29
0 -25 -38 -22 -165 14 -82 23 -114 27 -235 27 -120 0 -150 -3 -209 -23 -79
-27 -166 -69 -240 -117 -43 -28 -63 -34 -128 -38 -61 -4 -90 -12 -138 -38
-121 -64 -230 -222 -269 -390 -23 -95 -41 -261 -40 -353 l1 -61 18 50 c18 50
18 50 19 15 1 -42 -31 -197 -53 -259 -20 -54 -20 -54 4 -41 19 10 19 9 4 -32
-9 -24 -18 -86 -21 -138 -5 -87 -3 -102 26 -188 17 -51 31 -103 31 -117 0 -13
5 -27 10 -30 6 -4 10 10 10 35 0 23 4 39 9 36 13 -9 33 -160 25 -193 -6 -24
-5 -26 8 -15 27 22 70 133 82 211 l11 76 5 -90 5 -90 27 55 c17 35 31 89 39
150 7 54 25 128 42 170 62 160 77 329 52 575 -10 99 -15 209 -13 263 5 81 10
102 42 166 42 85 75 114 50 43 -21 -58 -44 -180 -44 -232 0 -57 21 -159 66
-318 32 -114 36 -138 32 -215 -5 -101 -29 -162 -100 -257 l-46 -60 -5 -245
c-3 -158 -10 -273 -20 -325 -19 -98 -14 -124 29 -166 30 -29 34 -39 34 -86 l0
-53 -214 0 -214 0 -14 42 c-13 37 -13 48 0 80 19 49 4 109 -35 135 -59 41 -73
61 -73 105 0 24 5 59 10 79 31 111 61 350 71 554 6 139 15 235 24 260 8 22 17
90 20 150 16 288 60 456 155 586 l28 39 -15 67 c-26 120 -43 246 -43 319 0 84
29 204 70 293 17 35 30 67 30 72 0 17 -75 -22 -111 -57 -98 -95 -129 -256
-111 -579 5 -93 6 -201 3 -240 l-7 -70 -11 40 c-7 22 -15 59 -19 83 -4 23 -11
45 -17 49 -7 4 -8 -20 -4 -73 8 -96 -8 -374 -28 -504 -31 -193 -110 -458 -156
-525 -14 -20 -19 -23 -15 -10 13 47 46 249 41 253 -2 3 -7 -4 -11 -14 -27 -79
-99 -233 -132 -281 -41 -60 -139 -159 -149 -150 -3 3 6 41 20 84 21 62 47 176
47 202 0 2 -15 -13 -34 -35 l-34 -39 15 55 c8 30 19 138 24 240 9 169 13 194
45 294 19 59 33 113 32 118 -2 6 -21 -11 -42 -36 -21 -26 -40 -45 -43 -43 -2
3 3 22 11 43 34 86 56 197 71 344 39 408 76 543 199 735 105 161 241 249 443
287 75 14 137 33 203 63 294 135 533 165 793 101 218 -55 275 -59 299 -22 4 6
5 50 1 97 -7 102 -2 127 34 169 l26 32 -16 46 c-26 72 -23 185 7 247 43 91
132 155 236 170 l45 6 -3 99 c-5 119 11 180 75 298 24 45 41 82 36 83 -4 1
-24 0 -43 -1 -23 -1 -45 6 -63 20 -22 18 -27 29 -27 67 0 47 20 83 46 83 9 0
11 19 7 78 -7 95 6 140 55 194 50 56 99 78 170 78 111 0 223 -85 238 -181 6
-33 14 -43 53 -66 l46 -28 -40 -3 c-79 -5 -85 -9 -84 -50 0 -20 4 -45 8 -55 4
-12 -5 -43 -27 -87 l-33 -70 -44 0 c-43 0 -55 -10 -55 -48 0 -9 27 -57 60
-107 98 -149 105 -170 106 -316 0 -79 5 -138 13 -157 19 -45 189 -155 316
-205 103 -39 157 -82 171 -134 3 -13 10 -23 14 -23 4 0 30 19 58 42 42 33 51
45 46 64 -5 19 0 26 33 41 l38 18 0 90 c0 50 -11 169 -24 265 -37 273 -32 300
99 535 27 50 50 101 50 113 0 13 -16 50 -35 81 -41 66 -55 109 -55 167 0 167
152 280 313 232z m-1638 -1648 c8 -25 -15 -102 -29 -97 -12 4 -21 80 -12 103
8 21 34 17 41 -6z m-3760 -501 c30 -13 64 -20 93 -19 26 2 53 2 59 1 20 -2 45
-59 37 -84 -14 -46 -34 -57 -99 -57 -41 0 -78 -7 -106 -20 -24 -11 -61 -20
-81 -20 -76 0 -457 87 -481 110 -12 10 131 50 368 103 58 13 164 6 210 -14z
m8946 -12 c158 -37 253 -67 243 -77 -22 -22 -343 -98 -447 -106 -61 -5 -78 -2
-112 15 -28 15 -58 21 -106 21 -50 0 -69 4 -81 18 -25 29 -28 51 -13 88 15 36
18 37 100 35 22 -1 58 8 80 19 34 17 55 19 135 16 52 -3 143 -16 201 -29z
m-4764 -290 c26 -14 64 -28 83 -32 46 -10 120 -53 120 -71 0 -7 -12 -20 -27
-28 -25 -13 -32 -12 -67 6 -31 16 -51 19 -90 14 -56 -6 -62 -4 -94 38 -15 19
-22 43 -22 72 0 42 1 43 24 34 14 -5 46 -20 73 -33z m1186 -357 c14 -11 28
-20 32 -20 13 0 115 -70 115 -80 0 -15 -71 -12 -148 5 -96 22 -98 24 -73 74
24 46 37 50 74 21z m-5123 -481 c8 -17 9 -33 4 -38 -5 -5 -43 -21 -86 -36
l-76 -27 13 -32 c13 -32 31 -41 175 -80 50 -14 57 -19 69 -51 7 -20 11 -38 9
-40 -1 -1 -55 10 -118 26 -63 16 -118 29 -122 29 -4 0 -41 -45 -83 -100 -42
-55 -79 -100 -84 -100 -4 0 -13 17 -19 37 -13 41 -16 35 78 163 38 51 40 57
29 88 -6 17 -13 32 -15 32 -2 0 -40 -13 -84 -30 l-81 -29 -15 36 c-8 19 -13
37 -11 39 5 6 381 142 393 143 6 1 17 -13 24 -30z m8443 -36 l199 -67 -6 -30
c-4 -17 -10 -34 -14 -38 -4 -4 -68 12 -142 37 -74 25 -136 45 -138 45 -5 0
168 -252 188 -273 15 -16 16 -25 7 -53 -6 -19 -14 -34 -20 -34 -8 0 -399 139
-404 143 -1 1 6 19 15 38 l17 36 130 -47 c72 -27 131 -47 133 -45 1 1 -42 68
-98 147 -96 139 -99 147 -89 177 6 17 14 31 17 31 4 0 96 -30 205 -67z m-5257
-429 c227 -89 406 -120 637 -111 78 3 176 11 218 18 119 19 113 31 104 -194
-4 -105 -6 -244 -6 -308 2 -91 -4 -144 -23 -240 -38 -184 -35 -224 24 -254 27
-14 30 -20 30 -65 0 -27 5 -52 11 -56 17 -10 -6 -27 -28 -20 -22 7 -43 45 -43
76 0 16 -7 20 -34 20 -29 0 -41 8 -75 48 -53 61 -83 123 -89 182 -4 45 -2 49
27 66 44 26 49 56 18 102 -14 20 -30 62 -37 92 -22 97 -226 473 -263 485 -7 2
-44 6 -84 9 l-72 5 -26 -77 c-34 -103 -47 -236 -43 -439 4 -196 10 -218 108
-344 69 -88 110 -162 110 -195 l0 -24 -623 0 -622 0 -28 58 c-15 31 -43 81
-62 111 -45 71 -52 130 -33 301 14 133 15 137 75 256 33 67 80 148 105 180 24
33 68 94 98 137 29 43 55 76 57 73 10 -10 -20 -88 -62 -161 -25 -44 -45 -88
-45 -98 0 -30 26 -77 74 -136 73 -89 173 -266 187 -329 7 -31 20 -68 30 -82
15 -22 15 -28 3 -45 -20 -26 -17 -61 7 -111 24 -50 84 -107 107 -102 31 6 53
111 49 233 -4 123 -11 143 -88 260 -82 124 -109 183 -109 237 0 60 18 97 104
212 36 49 85 123 108 165 42 78 66 111 79 111 4 0 60 -21 125 -46z m-3073 22
c110 -47 167 -193 118 -302 -33 -72 -127 -134 -202 -134 -103 0 -203 91 -223
203 -16 87 46 193 134 231 44 19 131 20 173 2z m8236 -66 c86 -43 93 -142 21
-284 -24 -47 -47 -86 -52 -86 -7 0 -363 185 -376 196 -7 5 29 64 38 64 5 0 35
-12 66 -27 32 -16 59 -24 61 -18 2 6 18 37 37 70 55 100 122 128 205 85z
m-284 -390 c94 -62 172 -114 173 -116 7 -6 -33 -64 -44 -64 -6 0 -58 33 -115
74 -57 40 -105 73 -107 71 -1 -1 22 -53 51 -116 29 -63 51 -122 49 -131 -4
-21 -16 -21 -159 -5 -57 7 -103 10 -103 7 1 -3 48 -38 105 -79 58 -41 105 -78
105 -82 0 -4 -10 -19 -22 -33 l-23 -24 -150 109 c-82 61 -161 118 -175 129
l-25 18 26 27 27 27 146 -17 c81 -10 149 -16 151 -13 2 2 -25 64 -61 137 -35
74 -64 139 -64 145 0 16 30 57 38 52 4 -2 84 -55 177 -116z m-7665 41 l20 -30
-70 -48 c-38 -26 -68 -53 -66 -60 11 -27 109 -153 119 -153 7 0 39 21 71 45
33 25 63 45 67 45 4 0 16 -14 27 -32 l20 -32 -86 -63 c-48 -35 -125 -91 -172
-126 -47 -34 -89 -62 -93 -62 -4 0 -17 14 -27 31 l-20 30 75 56 75 55 -58 81
c-31 45 -62 81 -67 82 -6 0 -42 -22 -80 -50 l-69 -50 -23 28 c-12 15 -22 30
-23 34 0 7 340 248 351 248 4 0 17 -13 29 -29z m7201 -380 c27 -22 27 -22 -65
-125 -64 -72 -64 -75 -5 -117 l28 -20 34 38 c19 21 48 54 65 73 l30 35 26 -24
25 -24 -64 -72 -64 -71 42 -42 42 -42 80 86 80 86 23 -25 23 -25 -92 -103
c-50 -57 -97 -110 -104 -117 -10 -11 -42 15 -169 134 -101 94 -155 152 -152
161 7 17 178 212 187 212 4 1 17 -7 30 -18z m-6901 -16 l23 -25 -64 -58 -63
-59 28 -34 c51 -61 106 -119 113 -119 4 0 35 27 68 60 l60 60 27 -34 27 -34
-42 -38 c-23 -20 -92 -86 -154 -146 -61 -59 -115 -108 -120 -108 -5 0 -20 11
-33 25 l-24 26 67 67 66 67 -70 78 -71 77 -70 -62 -70 -62 -25 28 -25 29 34
33 c78 78 274 253 284 253 6 1 21 -10 34 -24z m6670 -326 c0 -26 -4 -38 -11
-34 -18 12 -97 -25 -124 -56 -32 -39 -35 -118 -5 -167 41 -67 136 -93 201 -55
27 16 69 84 69 111 0 7 15 12 35 12 33 0 35 -2 35 -35 0 -45 -18 -81 -62 -121
-48 -46 -93 -66 -152 -66 -66 -1 -115 20 -165 72 -50 52 -64 94 -59 176 3 51
10 72 35 106 36 50 119 98 169 98 33 0 34 -1 34 -41z m-6301 -50 c1 -3 -19
-29 -44 -58 -25 -29 -45 -55 -45 -57 0 -3 27 -30 60 -60 82 -76 95 -131 50
-213 -17 -33 -70 -61 -116 -61 -47 0 -99 31 -189 112 l-59 55 19 24 c11 14 76
89 144 166 l124 142 28 -22 c15 -12 28 -25 28 -28z m301 -249 c0 -14 -250
-335 -263 -337 -19 -4 -59 35 -51 49 4 7 63 86 132 176 l123 162 30 -21 c16
-11 29 -24 29 -29z m5348 -21 c4 -43 -26 -85 -74 -105 -46 -19 -67 -18 -99 8
l-27 21 23 18 c21 15 25 16 46 1 22 -14 26 -13 51 5 16 12 27 30 28 44 1 60
47 67 52 8z m-5089 -3 c6 -7 9 -21 5 -30 -14 -37 47 -73 84 -49 19 12 26 12
40 1 9 -7 19 -14 21 -15 2 -2 -4 -12 -14 -23 -13 -14 -31 -20 -63 -20 -38 0
-50 5 -83 39 -28 27 -39 47 -39 68 0 44 25 58 49 29z m5334 -197 c109 -161
116 -175 100 -187 -51 -38 -48 -40 -130 87 -43 66 -81 120 -85 120 -5 1 -8
-56 -8 -126 0 -189 -7 -229 -41 -254 l-29 -20 -120 182 -119 183 27 18 c15 10
32 18 37 18 6 0 44 -53 84 -117 41 -64 76 -112 78 -107 1 5 7 85 11 178 8 160
10 170 32 188 13 10 28 17 34 15 6 -2 64 -82 129 -178z m-5429 113 c3 -5 -21
-49 -53 -99 -75 -115 -98 -158 -80 -150 327 136 328 137 362 99 15 -17 15 -21
-7 -53 -13 -18 -62 -98 -110 -176 -48 -79 -93 -143 -101 -143 -7 0 -23 9 -36
19 -22 18 -23 22 -10 43 108 174 134 219 130 222 -2 3 -76 -26 -164 -64 l-160
-69 -30 20 c-16 10 -29 23 -28 27 2 8 126 210 199 325 24 37 25 37 54 22 16
-8 31 -19 34 -23z m4931 -203 c9 -17 15 -32 13 -33 -2 -2 -42 -24 -90 -50 -49
-26 -88 -52 -88 -57 0 -10 20 -50 38 -78 8 -11 26 -4 91 32 l81 46 15 -22 c8
-12 15 -27 15 -34 0 -7 -36 -31 -80 -53 -44 -22 -80 -43 -80 -45 0 -3 11 -28
25 -56 l26 -50 100 53 c97 52 100 53 115 33 8 -11 13 -26 12 -33 -2 -8 -62
-45 -134 -83 l-132 -69 -101 191 c-66 125 -98 196 -92 202 7 7 239 135 248
137 1 0 10 -14 18 -31z m-4387 -107 l32 -18 -35 -73 c-19 -40 -35 -79 -35 -86
0 -8 15 -17 35 -21 31 -5 45 0 120 49 78 51 89 55 115 45 17 -5 32 -14 35 -19
3 -4 -39 -38 -95 -75 -57 -39 -100 -74 -100 -83 0 -9 9 -65 19 -126 10 -60 18
-111 16 -113 -1 -2 -20 4 -42 13 l-40 16 -12 77 c-6 42 -14 91 -16 108 -4 24
-13 35 -36 44 -16 7 -31 11 -33 9 -3 -2 -20 -39 -40 -81 -19 -43 -38 -78 -41
-78 -3 0 -20 7 -36 16 -22 11 -29 20 -24 32 23 60 170 382 174 382 3 -1 21 -9
39 -18z m4041 -83 c36 -13 36 -11 16 -49 -14 -26 -18 -28 -47 -19 -44 12 -98
-4 -132 -40 -77 -80 -17 -239 95 -257 48 -8 104 19 132 63 18 27 26 32 47 28
14 -4 29 -11 35 -16 17 -17 -29 -82 -79 -113 -157 -98 -345 8 -346 196 0 69 9
95 52 143 57 66 148 91 227 64z m-3362 -182 c2 -3 -135 -409 -141 -414 -2 -3
-65 16 -73 22 -2 1 22 75 52 165 30 91 55 170 55 176 0 10 -107 54 -131 54 -3
0 -19 -35 -34 -77 -39 -110 -80 -187 -112 -213 -22 -17 -37 -21 -71 -17 -24 2
-45 7 -48 10 -4 3 -1 22 6 41 10 30 15 35 34 30 36 -9 68 40 126 190 l52 134
141 -50 c78 -27 143 -50 144 -51z m2928 19 c56 -24 80 -92 51 -147 -13 -25
-12 -26 21 -38 19 -7 43 -27 54 -44 37 -61 18 -127 -48 -164 -38 -21 -241 -88
-248 -81 -4 4 -125 398 -125 408 0 5 42 22 93 39 141 46 152 47 202 27z
m-2785 -66 c4 -6 19 -65 35 -131 15 -65 29 -119 30 -119 1 0 39 47 84 104 l82
104 35 -8 c20 -5 37 -10 39 -12 9 -9 -266 -334 -296 -350 -39 -21 -108 -24
-132 -5 -14 11 -14 16 -2 44 13 31 15 32 45 22 24 -9 35 -8 55 5 14 9 25 21
25 26 0 6 -18 80 -40 166 -22 86 -40 162 -40 169 0 16 69 3 80 -15z m2254
-271 c21 -116 36 -213 33 -215 -2 -3 -20 -7 -39 -10 l-35 -6 -12 62 c-12 62
-12 62 -43 56 -17 -3 -37 -6 -44 -6 -8 0 -27 -30 -44 -67 -34 -74 -42 -83 -82
-83 -34 0 -34 5 -3 76 14 31 25 59 25 63 0 4 -16 15 -37 26 -71 39 -98 164
-47 224 14 18 36 37 48 43 28 16 161 46 206 47 l36 1 38 -211z m-1701 175
l128 -18 -7 -31 c-3 -16 -8 -32 -10 -34 -3 -3 -53 3 -112 11 -118 18 -122 17
-122 -39 0 -18 -1 -36 -2 -40 -2 -5 32 -13 73 -20 130 -19 169 -52 169 -139 0
-42 -5 -59 -26 -83 -41 -49 -82 -56 -210 -37 -60 9 -114 19 -120 21 -8 2 -2
65 18 207 16 111 31 209 34 217 3 9 14 12 32 8 15 -3 85 -13 155 -23z m1241
-56 c7 -44 36 -349 36 -381 0 -21 -6 -26 -36 -32 -20 -3 -37 -5 -39 -3 -2 2
-11 85 -21 186 l-17 182 -27 0 c-15 0 -48 -3 -74 -6 l-47 -7 7 -106 c11 -185
-24 -276 -105 -269 -34 3 -36 6 -39 40 -3 31 0 37 20 40 43 6 50 39 44 206 -4
83 -5 152 -4 153 5 1 253 26 275 28 18 1 23 -6 27 -31z m-474 -183 l0 -185 25
0 c25 0 25 -1 25 -80 l0 -80 -35 0 c-35 0 -35 0 -35 45 l0 45 -145 0 c-80 0
-148 1 -152 3 -5 1 -9 -19 -11 -45 l-3 -48 -41 0 -41 0 7 53 c3 28 6 66 6 83
0 23 5 33 19 37 11 2 26 18 35 34 17 35 36 168 36 260 l0 63 155 0 155 0 0
-185z"/>
<path d="M5476 8673 c-12 -60 -26 -185 -21 -192 5 -8 174 -32 245 -34 91 -2
130 33 130 117 0 44 -18 70 -67 95 -15 8 -241 41 -280 41 -1 0 -4 -12 -7 -27z"/>
<path d="M5426 8288 c-5 -15 -26 -199 -26 -221 0 -17 271 -52 330 -42 55 9 93
53 94 108 2 99 -34 122 -237 148 -83 10 -153 19 -155 19 -1 0 -4 -6 -6 -12z"/>
<path d="M4411 8349 c-35 -4 -66 -11 -69 -14 -5 -5 14 -235 24 -283 5 -23 6
-24 92 -17 122 10 179 22 217 45 89 55 86 221 -5 267 -28 14 -159 15 -259 2z"/>
<path d="M2083 7704 c18 -82 87 -357 91 -361 5 -6 34 13 159 105 48 35 87 67
87 71 -1 5 -310 201 -333 210 -6 2 -8 -8 -4 -25z"/>
<path d="M8780 6718 c-85 -27 -163 -52 -172 -56 -15 -6 -2 -27 75 -124 50 -64
97 -117 102 -117 14 -1 29 24 111 196 57 120 69 153 56 152 -9 -1 -87 -23
-172 -51z"/>
<path d="M5056 5323 c8 -48 45 -122 72 -147 20 -17 23 -17 69 -2 50 17 98 11
129 -15 16 -13 57 -5 92 17 28 18 16 48 -25 59 -15 3 -39 15 -54 26 -15 11
-52 24 -81 29 -29 6 -86 24 -127 40 -40 17 -75 30 -77 30 -3 0 -2 -17 2 -37z"/>
<path d="M7706 5174 c-30 -29 -62 -109 -48 -118 17 -10 253 -58 259 -52 13 13
-19 58 -64 89 -26 17 -63 47 -84 65 -42 37 -42 37 -63 16z"/>
<path d="M7636 4994 c-4 -9 -5 -18 -3 -20 4 -5 182 -24 220 -24 59 0 21 17
-85 38 -133 27 -124 26 -132 6z"/>
<path d="M5517 2333 c-4 -3 -7 -13 -7 -22 1 -13 3 -13 11 2 11 19 8 33 -4 20z"/>
<path d="M870 3088 c-113 -78 -79 -238 56 -264 45 -8 118 26 144 68 41 67 16
169 -50 203 -44 23 -111 19 -150 -7z"/>
<path d="M9157 3039 c-9 -6 -31 -37 -47 -69 l-30 -59 64 -35 c35 -20 67 -36
71 -36 11 0 55 105 55 133 0 55 -66 93 -113 66z"/>
<path d="M1801 1764 c-57 -64 -56 -65 13 -116 65 -47 127 -34 143 30 8 33 -11
65 -63 109 l-42 34 -51 -57z"/>
<path d="M6451 993 c-46 -17 -49 -26 -22 -96 9 -24 15 -27 38 -21 16 4 48 16
73 28 48 22 60 48 40 85 -13 26 -64 27 -129 4z"/>
<path d="M6530 828 c-36 -11 -66 -21 -68 -23 -2 -2 4 -29 14 -60 16 -51 20
-56 41 -50 61 15 134 48 143 65 13 24 -2 65 -29 79 -24 13 -21 14 -101 -11z"/>
<path d="M5890 859 c-83 -16 -115 -88 -66 -146 22 -25 30 -28 82 -26 96 5 92
0 75 98 -16 93 -11 89 -91 74z"/>
<path d="M4224 626 l-10 -65 69 -12 c81 -13 113 -4 123 36 15 59 -16 82 -132
100 l-41 6 -9 -65z"/>
<path d="M4897 693 c-3 -54 -12 -118 -21 -143 -8 -24 -14 -45 -13 -46 1 -2 45
-4 97 -5 l95 -2 0 144 0 144 -76 3 -76 3 -6 -98z"/>
</g>
</svg>
